<svg xmlns="http://www.w3.org/2000/svg" viewBox="0 0 55 45" width="55" height="45">
	<style>
		tspan { white-space:pre }
		.shp0 { fill: #d4d4d4 } 
	</style>
	<path id="Composite Path" class="shp0" d="M21.3 1C19.69 2.03 17.67 3.36 15.29 5C12.89 6.63 10.62 8.61 8.5 10.93C6.41 13.2 4.63 15.8 3.19 18.7C1.72 21.6 1 24.8 1 28.33C1 33.31 1.96 37.35 3.89 40.4C5.82 43.47 9.03 45 13.51 45C16.37 45 18.62 44.01 20.28 42.01C21.92 40.04 22.74 37.89 22.74 35.59C22.74 32.37 21.85 29.94 20.07 28.26C18.28 26.59 15.86 25.75 12.76 25.75L9.15 25.75C9.45 22.96 9.96 20.66 10.73 18.87C11.47 17.11 12.55 15.42 13.95 13.78C15.46 12.06 16.95 10.67 18.39 9.62C19.83 8.58 21.75 7.32 24.1 5.86L21.3 1L21.3 1ZM51.2 1C49.58 2.03 47.57 3.36 45.19 5C42.79 6.63 40.52 8.61 38.39 10.93C36.31 13.2 34.53 15.8 33.08 18.7C31.62 21.6 30.9 24.8 30.9 28.33C30.9 33.31 31.85 37.35 33.79 40.4C35.72 43.47 38.92 45 43.4 45C46.27 45 48.52 44.01 50.18 42.01C51.81 40.04 52.64 37.89 52.64 35.59C52.64 32.37 51.75 29.94 49.97 28.26C48.18 26.59 45.76 25.75 42.66 25.75L39.05 25.75C39.35 22.96 39.86 20.68 40.58 18.92C41.3 17.18 42.41 15.46 43.85 13.78C45.36 12.06 46.84 10.67 48.29 9.62C49.73 8.58 51.64 7.32 54 5.86L51.2 1L51.2 1Z" />
</svg>