<svg xmlns="http://www.w3.org/2000/svg" viewBox="0 0 14 15" width="14" height="15">
	<style>
		tspan { white-space:pre }
		.shp0 { fill: #ffffff } 
	</style>
	<path id="icon-rss" class="shp0" d="M4.04 12.09C4.04 11.04 3.25 10.18 2.27 10.18C1.29 10.18 0.5 11.04 0.5 12.09C0.5 13.14 1.29 14 2.27 14C3.25 14 4.04 13.14 4.04 12.09L4.04 12.09ZM8.77 13.31C8.61 11.2 7.75 9.2 6.35 7.7C4.96 6.18 3.1 5.26 1.14 5.09L1.09 5.09C0.94 5.09 0.8 5.15 0.69 5.26C0.56 5.38 0.5 5.55 0.5 5.73L0.5 7.07C0.5 7.4 0.73 7.67 1.04 7.7C3.85 7.98 6.08 10.39 6.35 13.42C6.38 13.75 6.63 14 6.93 14L8.18 14C8.34 14 8.5 13.93 8.61 13.79C8.72 13.66 8.78 13.49 8.77 13.31L8.77 13.31ZM13.5 13.33C13.33 9.85 11.97 6.58 9.67 4.12C7.38 1.64 4.35 0.18 1.12 0L1.09 0C0.94 0 0.8 0.06 0.68 0.18C0.56 0.3 0.5 0.46 0.5 0.64L0.5 2.06C0.5 2.39 0.74 2.66 1.05 2.68C6.41 3.02 10.69 7.63 10.99 13.4C11.01 13.74 11.27 14 11.58 14L12.9 14C13.07 14 13.21 13.93 13.33 13.8C13.45 13.67 13.51 13.5 13.5 13.33L13.5 13.33Z" />
</svg>