<svg xmlns="http://www.w3.org/2000/svg" viewBox="0 0 16 14" width="16" height="14">
	<style>
		tspan { white-space:pre }
		.shp0 { fill: #ffffff } 
	</style>
	<path id="icon-twitter" class="shp0" d="M15.5,2.04c-0.55,0.25 -1.15,0.44 -1.77,0.51c0.64,-0.41 1.12,-1.05 1.35,-1.81c-0.59,0.38 -1.26,0.65 -1.95,0.79c-0.56,-0.64 -1.36,-1.04 -2.25,-1.04c-1.7,0 -3.07,1.47 -3.07,3.28c0,0.25 0.03,0.51 0.08,0.75c-2.55,-0.14 -4.83,-1.44 -6.34,-3.43c-0.27,0.49 -0.42,1.05 -0.42,1.66c0,1.14 0.54,2.14 1.37,2.73c-0.5,-0.02 -0.98,-0.17 -1.39,-0.42v0.04c0,1.59 1.06,2.91 2.47,3.22c-0.26,0.07 -0.53,0.11 -0.81,0.11c-0.2,0 -0.39,-0.02 -0.58,-0.05c0.39,1.3 1.52,2.24 2.87,2.28c-1.06,0.88 -2.38,1.4 -3.82,1.4c-0.26,0 -0.5,-0.01 -0.74,-0.04c1.36,0.93 2.98,1.47 4.72,1.47c5.65,0 8.75,-5 8.75,-9.33c0,-0.14 0,-0.28 -0.01,-0.43c0.6,-0.47 1.12,-1.05 1.54,-1.7z" />
</svg>