<svg xmlns="http://www.w3.org/2000/svg" viewBox="0 0 16 14" width="16" height="14">
	<style>
		tspan { white-space:pre }
		.shp0 { fill: #ffffff } 
	</style>
	<path id="icon-linkedin" class="shp0" d="M3.73 4.43L0.68 4.43L0.68 14L3.73 14L3.73 4.43L3.73 4.43ZM3.94 1.47C3.93 0.71 3.27 0 2.22 0C1.19 0 0.5 0.71 0.5 1.65C0.5 2.57 1.16 3.3 2.19 3.3L2.2 3.3C3.27 3.3 3.95 2.57 3.94 1.65L3.94 1.47L3.94 1.47ZM15.5 8.44C15.5 5.62 14 4.39 11.95 4.39C10.14 4.21 9.35 5.16 8.91 5.82L8.93 5.84L8.93 4.58L5.58 4.58C5.58 4.58 5.62 5.39 5.58 13.93L8.93 13.93L8.93 8.59C8.93 8.3 8.96 8.02 9.04 7.81C9.28 7.24 9.83 6.65 10.76 6.65C11.97 6.65 12.46 7.53 12.46 8.81L12.46 13.93L15.5 13.93L15.5 8.44L15.5 8.44Z" />
</svg>